<svg width="42" height="42" viewBox="0 0 42 42" fill="none" xmlns="http://www.w3.org/2000/svg">
<path fill-rule="evenodd" clip-rule="evenodd" d="M40.9482 21.346H35.6511C35.6511 21.346 35.6509 21.6064 35.6503 21.6581C35.5681 29.4019 29.3225 35.6541 21.6298 35.6541C14.0541 35.6541 7.88151 29.4399 7.61743 21.8526C7.6114 21.6845 7.60852 21.346 7.60852 21.346H2C2 21.346 2.00057 21.5518 2.0023 21.6544C2.16551 32.3665 10.8205 41 21.4741 41C32.1164 41 40.7648 32.3844 40.9453 21.6868C40.949 21.4644 40.9482 21.346 40.9482 21.346Z" fill="#FF490A"/>
<path fill-rule="evenodd" clip-rule="evenodd" d="M16.1316 21.3496C14.6087 21.3496 13.3742 22.5847 13.3742 24.1082C13.3742 25.6318 14.6087 26.8671 16.1316 26.8671C17.6546 26.8671 18.8891 25.6318 18.8891 24.1082C18.8891 22.5847 17.6546 21.3496 16.1316 21.3496ZM27.1613 21.3496C25.6384 21.3496 24.4039 22.5847 24.4039 24.1082C24.4039 25.6318 25.6384 26.8671 27.1613 26.8671C28.684 26.8671 29.9187 25.6318 29.9187 24.1082C29.9187 22.5847 28.684 21.3496 27.1613 21.3496Z" fill="#FF490A"/>
<path d="M12.8349 13.2874C12.6536 13.6093 12.4237 13.8814 12.145 14.1047C11.8663 14.3274 11.5444 14.4966 11.1792 14.6124C10.814 14.7282 10.4094 14.7857 9.96573 14.7857C9.17552 14.7857 8.49277 14.5946 7.91663 14.2121C7.34049 13.8297 6.89395 13.2601 6.57729 12.5035C6.26062 11.7469 6.10258 10.8073 6.10258 9.68463C6.10258 8.60591 6.25804 7.68696 6.56924 6.92749C6.88044 6.16773 7.3267 5.58757 7.90859 5.18556C8.49018 4.78413 9.18385 4.5827 9.99045 4.5827C10.445 4.5827 10.86 4.64764 11.2361 4.77695C11.612 4.90626 11.9381 5.09217 12.214 5.33384C12.4898 5.57636 12.7117 5.86774 12.8795 6.20882C13.047 6.5502 13.1582 6.93266 13.2122 7.35622H17.2702C17.1728 6.34388 16.9211 5.44418 16.5153 4.65684C16.1096 3.87007 15.582 3.20542 14.9329 2.66319C14.2835 2.12125 13.5315 1.70861 12.6766 1.42499C11.8217 1.14138 10.891 1 9.8847 1C8.40743 1 7.07383 1.33563 5.88362 2.00717C4.69312 2.67871 3.74889 3.66088 3.0512 4.95396C2.35322 6.24733 2.00409 7.82374 2.00409 9.68405C2.00409 11.5383 2.34776 13.1124 3.03482 14.4055C3.72188 15.6989 4.65922 16.6828 5.84713 17.3569C7.03475 18.031 8.3807 18.3681 9.88499 18.3681C11.0266 18.3681 12.0398 18.192 12.9243 17.8397C13.8091 17.4877 14.5596 17.013 15.1766 16.4158C15.7932 15.819 16.2788 15.1569 16.6334 14.4308C16.9877 13.7044 17.2001 12.9668 17.2705 12.2185L13.2125 12.1938C13.1418 12.6007 13.0163 12.965 12.8349 13.2874Z" fill="#121330"/>
<path d="M36.2524 1.93044L34.3294 11.9857H34.205L32.0237 1.93044H27.441L25.3169 12.0579H25.1928L23.2121 1.93044H18.5145L22.3414 17.7394H27.3548L29.6511 8.52774H29.8137L32.1099 17.7394H37.1136L40.95 1.93044H36.2524Z" fill="#121330"/>
</svg>
